# File created by Blade
# Date/Time:  Thu Sep 25 18:39:44 2014
# Frame Rate: 120.000 fps
#------------------------------------------------------
:FULLY-SPECIFIED
:DEGREES
2038
root -1.510928 32.994071 -3.662171 6.834176 3.685353 -1.932480
Spine -8.258212 5.895428 -5.143791
Head -24.784176 -18.341384 27.861340
LeftShoulder 20.338743 4.197279 21.176945
LeftArm 53.851717 25.911067 -83.472641
LeftForeArm -65.796855 0.000000 112.531079
LeftHand -9.945599 -0.000000 -16.437365
LeftHandThumb1 -26.253704 0.000000 33.147579
RightShoulder 6.942734 22.754148 -28.560866
RightArm 96.898034 -12.189869 62.077494
RightForeArm -2.513089 -0.000000 76.329813
RightHand -0.383068 -0.000000 17.032212
RightHandThumb1 -24.326973 -0.000000 -32.862282
LeftUpLeg -2.835870 6.894270 3.629010
LeftLeg -0.563984 -0.000000 0.000000
LeftFoot -9.049722 1.217558 -10.541217
LeftToeBase 10.048946 -0.000000 -0.000000
RightUpLeg -3.539956 -7.366371 2.386478
RightLeg 1.401004 -0.000000 -0.000000
RightFoot -7.153295 -1.057316 -0.388735
RightToeBase -0.326926 -0.000000 0.000000
2039
root -1.514798 32.995767 -3.640365 6.794843 3.897650 -1.933227
Spine -8.290091 5.976917 -5.212845
Head -24.771849 -18.643077 28.037289
LeftShoulder 20.368103 4.467599 21.163768
LeftArm 53.908971 25.811671 -83.541347
LeftForeArm -65.596774 0.000000 112.870775
LeftHand -9.826037 -0.000000 -16.321378
LeftHandThumb1 -26.253704 0.000000 33.147579
RightShoulder 6.905467 22.026779 -28.389448
RightArm 98.166292 -11.927522 60.997821
RightForeArm -2.256131 -0.000000 77.123797
RightHand -0.418739 -0.000000 17.585099
RightHandThumb1 -24.326973 -0.000000 -32.862282
LeftUpLeg -2.780339 6.793013 3.664451
LeftLeg -0.592230 -0.000000 0.000000
LeftFoot -9.009109 1.117374 -10.529477
LeftToeBase 10.046937 -0.000000 -0.000000
RightUpLeg -3.434542 -7.466365 2.403642
RightLeg 1.371757 -0.000000 -0.000000
RightFoot -7.150600 -1.150155 -0.338775
RightToeBase -0.378030 -0.000000 0.000000
2040
root -1.516681 32.997472 -3.618646 6.776605 4.149638 -1.925119
Spine -8.345148 5.991442 -5.269855
Head -24.747720 -18.938826 28.177589
LeftShoulder 20.350773 4.720839 21.113974
LeftArm 53.934432 25.688737 -83.683325
LeftForeArm -65.397613 -0.000000 113.112649
LeftHand -9.751551 -0.000000 -16.335604
LeftHandThumb1 -26.253704 0.000000 33.147579
RightShoulder 6.928842 21.383027 -28.222299
RightArm 99.372464 -11.570902 59.858875
RightForeArm -2.034757 -0.000000 77.996290
RightHand -0.497670 -0.000000 18.180804
RightHandThumb1 -24.326973 -0.000000 -32.862282
LeftUpLeg -2.754977 6.631097 3.688654
LeftLeg -0.609572 -0.000000 0.000000
LeftFoot -8.983555 1.056128 -10.493823
LeftToeBase 10.107931 -0.000000 -0.000000
RightUpLeg -3.347541 -7.609312 2.415243
RightLeg 1.344369 -0.000000 -0.000000
RightFoot -7.161346 -1.246907 -0.299479
RightToeBase -0.360537 -0.000000 0.000000
2041
root -1.516997 32.997675 -3.600799 6.768703 4.372734 -1.907692
Spine -8.395799 6.004795 -5.321122
Head -24.728766 -19.226268 28.267328
LeftShoulder 20.356521 4.655658 20.989152
LeftArm 53.546988 25.508164 -84.131765
LeftForeArm -65.038286 -0.000000 113.379519
LeftHand -9.721609 0.000000 -16.342831
LeftHandThumb1 -26.253704 0.000000 33.147579
RightShoulder 6.982644 21.363153 -28.293403
RightArm 99.825113 -11.569989 59.233340
RightForeArm -1.865139 -0.000000 79.080320
RightHand -0.446810 0.000000 18.607940
RightHandThumb1 -24.326973 -0.000000 -32.862282
LeftUpLeg -2.742576 6.505249 3.695690
LeftLeg -0.627215 -0.000000 0.000000
LeftFoot -8.936536 0.952437 -10.521857
LeftToeBase 10.032459 -0.000000 -0.000000
RightUpLeg -3.295256 -7.777302 2.426909
RightLeg 1.351556 -0.000000 -0.000000
RightFoot -7.213144 -1.349173 -0.331836
RightToeBase -0.335615 -0.000000 0.000000
2042
root -1.514785 32.998317 -3.582055 6.764981 4.593911 -1.882610
Spine -8.451054 6.010219 -5.369164
Head -24.706836 -19.505428 28.350569
LeftShoulder 20.275308 4.925143 20.910056
LeftArm 53.636053 25.303076 -84.269428
LeftForeArm -64.744529 0.000000 113.527839
LeftHand -9.749453 0.000000 -16.564000
LeftHandThumb1 -26.253704 0.000000 33.147579
RightShoulder 7.055642 21.360633 -28.353007
RightArm 100.362589 -11.575321 58.604235
RightForeArm -1.604163 -0.000000 80.076652
RightHand -0.426375 0.000000 19.114029
RightHandThumb1 -24.326973 -0.000000 -32.862282
LeftUpLeg -2.734139 6.407411 3.688741
LeftLeg -0.639358 -0.000000 0.000000
LeftFoot -8.905146 0.840738 -10.506421
LeftToeBase 10.054752 -0.000000 -0.000000
RightUpLeg -3.238002 -7.853661 2.402809
RightLeg 1.345764 -0.000000 -0.000000
RightFoot -7.254955 -1.415676 -0.209821
RightToeBase -0.282283 -0.000000 0.000000
2043
root -1.516208 32.997607 -3.562650 6.757681 4.819505 -1.856742
Spine -8.506786 5.998630 -5.423213
Head -24.653077 -19.796331 28.410031
LeftShoulder 20.184678 5.003658 20.809779
LeftArm 53.529205 25.081822 -84.520375
LeftForeArm -64.444109 -0.000000 113.676132
LeftHand -9.946532 -0.000000 -16.662700
LeftHandThumb1 -26.253704 0.000000 33.147579
RightShoulder 7.138982 21.701229 -28.576346
RightArm 100.387218 -11.770056 58.313788
RightForeArm -1.250289 -0.000000 81.290861
RightHand -0.292005 -0.000000 19.356534
RightHandThumb1 -24.326973 -0.000000 -32.862282
LeftUpLeg -2.718615 6.314806 3.691223
LeftLeg -0.660776 -0.000000 0.000000
LeftFoot -8.853418 0.706561 -10.480629
LeftToeBase 10.008225 -0.000000 -0.000000
RightUpLeg -3.183080 -7.991295 2.404526
RightLeg 1.356609 -0.000000 -0.000000
RightFoot -7.308388 -1.544923 -0.270942
RightToeBase -0.306232 -0.000000 0.000000
2044
root -1.512576 32.998368 -3.544535 6.741961 5.007601 -1.821029
Spine -8.546986 5.987603 -5.476878
Head -24.602803 -20.068821 28.486228
LeftShoulder 20.062361 5.182949 20.683520
LeftArm 53.596868 24.889280 -84.616784
LeftForeArm -64.185047 -0.000000 113.815352
LeftHand -9.819852 -0.000000 -16.889951
LeftHandThumb1 -26.253704 0.000000 33.147579
RightShoulder 7.276057 21.576079 -28.567198
RightArm 101.043340 -11.630608 57.590457
RightForeArm -0.849226 -0.000000 82.244622
RightHand -0.450238 -0.000000 19.759495
RightHandThumb1 -24.326973 -0.000000 -32.862282
LeftUpLeg -2.679479 6.212079 3.670912
LeftLeg -0.699954 -0.000000 0.000000
LeftFoot -8.800235 0.616061 -10.509951
LeftToeBase 10.004712 -0.000000 -0.000000
RightUpLeg -3.118363 -8.019834 2.370627
RightLeg 1.355115 -0.000000 -0.000000
RightFoot -7.342299 -1.693125 -0.221757
RightToeBase -0.317388 -0.000000 0.000000
2045
root -1.513147 32.998291 -3.527405 6.717488 5.192760 -1.803222
Spine -8.586335 5.961453 -5.516031
Head -24.491113 -20.318562 28.552566
LeftShoulder 20.127505 4.895515 20.568323
LeftArm 53.038511 24.600094 -85.057860
LeftForeArm -63.917018 0.000000 114.147393
LeftHand -9.840395 -0.000000 -16.831967
LeftHandThumb1 -26.253704 0.000000 33.147579
RightShoulder 7.430471 21.482943 -28.556637
RightArm 101.631841 -11.498540 56.911954
RightForeArm -0.502200 -0.000000 83.198312
RightHand -0.494755 -0.000000 20.058296
RightHandThumb1 -24.326973 -0.000000 -32.862282
LeftUpLeg -2.645453 6.149055 3.675464
LeftLeg -0.718536 -0.000000 0.000000
LeftFoot -8.775307 0.509831 -10.494890
LeftToeBase 10.035506 -0.000000 -0.000000
RightUpLeg -3.038808 -8.068706 2.359112
RightLeg 1.336392 -0.000000 -0.000000
RightFoot -7.383064 -1.793588 -0.149676
RightToeBase -0.264855 -0.000000 0.000000
2046
root -1.512696 32.997291 -3.510791 6.696369 5.382749 -1.775614
Spine -8.648830 5.878332 -5.505311
Head -24.254380 -20.571128 28.404890
LeftShoulder 20.100604 4.313283 20.274669
LeftArm 52.056442 24.292669 -85.646422
LeftForeArm -64.050730 -0.000000 114.490535
LeftHand -9.953316 0.000000 -17.054923
LeftHandThumb1 -26.253704 0.000000 33.147579
RightShoulder 7.677936 21.342303 -28.595826
RightArm 102.244080 -11.362378 56.307267
RightForeArm -0.122893 -0.000000 84.149349
RightHand -0.567728 0.000000 20.103591
RightHandThumb1 -24.326973 -0.000000 -32.862282
LeftUpLeg -2.614611 6.066363 3.671513
LeftLeg -0.740748 -0.000000 0.000000
LeftFoot -8.722641 0.387507 -10.509807
LeftToeBase 9.992319 -0.000000 -0.000000
RightUpLeg -2.979623 -8.112646 2.343718
RightLeg 1.355546 -0.000000 -0.000000
RightFoot -7.441239 -1.951558 -0.133669
RightToeBase -0.282270 -0.000000 0.000000
2047
root -1.509835 32.997694 -3.494860 6.686458 5.551043 -1.745858
Spine -8.674095 5.831167 -5.529439
Head -24.197758 -20.734254 28.429742
LeftShoulder 19.986107 4.507782 20.219125
LeftArm 52.151805 24.111220 -85.645023
LeftForeArm -63.999207 0.000000 114.743626
LeftHand -9.875608 -0.000000 -17.051346
LeftHandThumb1 -26.253704 0.000000 33.147579
RightShoulder 7.775070 21.461034 -28.706586
RightArm 102.687410 -11.468629 55.867306
RightForeArm 0.172552 0.000000 85.112328
RightHand -0.167677 -0.000000 20.333336
RightHandThumb1 -24.326973 -0.000000 -32.862282
LeftUpLeg -2.587078 5.996971 3.657054
LeftLeg -0.765867 -0.000000 0.000000
LeftFoot -8.698854 0.295903 -10.472755
LeftToeBase 10.034818 -0.000000 -0.000000
RightUpLeg -2.927079 -8.164028 2.323526
RightLeg 1.360681 -0.000000 -0.000000
RightFoot -7.457791 -2.071731 -0.063611
RightToeBase -0.367426 -0.000000 0.000000
2048
root -1.508749 32.997739 -3.479011 6.687101 5.711245 -1.719378
Spine -8.682744 5.646759 -5.501907
Head -24.141827 -20.711771 28.351570
LeftShoulder 19.680084 4.903836 20.147232
LeftArm 52.497829 23.993765 -85.459639
LeftForeArm -63.953196 -0.000000 114.994355
LeftHand -9.835554 0.000000 -17.024697
LeftHandThumb1 -26.253704 0.000000 33.147579
RightShoulder 7.955559 22.097557 -28.991457
RightArm 102.624841 -11.895709 55.784701
RightForeArm 0.392238 0.000000 86.208403
RightHand 0.123580 -0.000000 20.747634
RightHandThumb1 -24.326973 -0.000000 -32.862282
LeftUpLeg -2.570743 5.932031 3.647531
LeftLeg -0.796694 -0.000000 0.000000
LeftFoot -8.646007 0.198439 -10.507603
LeftToeBase 9.970286 -0.000000 -0.000000
RightUpLeg -2.885716 -8.207483 2.305990
RightLeg 1.360634 -0.000000 -0.000000
RightFoot -7.524881 -2.216399 -0.125689
RightToeBase -0.217490 -0.000000 0.000000
